<?xml version="1.0" encoding="UTF-8"?>
<svg version="1.1" xmlns="http://www.w3.org/2000/svg" width="474" height="474">

<path d="M0 0 C29.80008363 26.05185314 48.39148203 60.4322086 51.87646484 100.15380859 C53.99108518 132.62124641 44.1935802 166.9517571 24.6875 193 C24.12289063 193.78503906 23.55828125 194.57007813 22.9765625 195.37890625 C-0.19485232 226.08861978 -35.03188729 245.98510861 -72.90283203 251.96850586 C-92.83000363 254.64119321 -112.841507 254.05850181 -132.3125 249 C-133.4878833 248.69521729 -133.4878833 248.69521729 -134.68701172 248.38427734 C-142.31426831 246.35532843 -149.80092665 244.11423073 -156.94140625 240.69921875 C-164.13881517 238.57675385 -171.03429206 240.71235635 -178.0625 242.5 C-198.80271883 247.44870628 -198.80271883 247.44870628 -207.69921875 242.19921875 C-211.95279891 239.0373565 -214.27996349 234.80264167 -216.3125 230 C-216.54660565 227.26040653 -216.6449387 224.78555315 -216.5625 222.0625 C-216.55734375 221.38509766 -216.5521875 220.70769531 -216.546875 220.00976562 C-216.47923359 215.60039123 -215.99388905 211.35159827 -215.3125 207 C-214.26078834 199.39899299 -215.88814299 195.22736055 -220.24609375 188.9765625 C-241.86071316 157.8417043 -251.02027585 118.53196032 -244.4140625 81.1484375 C-238.99506693 54.03273693 -225.6743128 30.35055514 -207.3125 10 C-206.60867187 9.21238281 -205.90484375 8.42476562 -205.1796875 7.61328125 C-151.54898608 -49.17816493 -58.01066615 -49.37228348 0 0 Z " fill="#010101" transform="translate(335.3125,126)"/>
<path d="M0 0 C4.66016093 3.12607068 7.96653932 6.40292236 11.26171875 10.953125 C12.04160156 12.00242188 12.82148438 13.05171875 13.625 14.1328125 C15.03726812 16.08901117 16.41611715 18.07031057 17.7421875 20.0859375 C18.58716797 21.31957031 18.58716797 21.31957031 19.44921875 22.578125 C19.92488281 23.31675781 20.40054688 24.05539063 20.890625 24.81640625 C22.96109395 26.62827634 22.96109395 26.62827634 26.484375 26.17578125 C31.35176138 25.30762333 36.05069198 23.8695844 40.76171875 22.390625 C42.44661458 21.87239583 44.13151042 21.35416667 45.81640625 20.8359375 C48.39011335 20.042189 50.96061448 19.24191163 53.52514648 18.41894531 C60.08219415 16.3574376 65.99249772 15.20107616 72.88671875 16.265625 C76.19921875 18.328125 76.19921875 18.328125 77.88671875 21.265625 C77.99840734 27.4084972 75.39454249 31.63636256 71.28344727 35.9465332 C69.42946467 37.73214053 67.54341626 39.47394842 65.63671875 41.203125 C64.96213623 41.82356689 64.28755371 42.44400879 63.5925293 43.08325195 C59.74231144 46.6136642 55.85662741 50.09924786 51.89453125 53.50390625 C49.76947108 55.36850185 47.69487534 57.28344415 45.62255859 59.20629883 C25.18827885 78.13587837 25.18827885 78.13587837 15.51171875 78.703125 C7.8274534 78.38948152 1.86874616 75.01487777 -3.29296875 69.45703125 C-7.63776913 64.22648831 -11.68915715 58.73141516 -15.5859375 53.16015625 C-16.87606271 51.32073052 -16.87606271 51.32073052 -19.11328125 49.265625 C-23.768214 48.81781821 -27.51704605 49.79200166 -31.9375 51.19921875 C-32.8796209 51.49530785 -32.8796209 51.49530785 -33.84077454 51.79737854 C-35.83007959 52.42463801 -37.81536635 53.06367233 -39.80078125 53.703125 C-41.14493524 54.12903567 -42.48933443 54.55417334 -43.83398438 54.97851562 C-48.2690771 56.38140765 -52.70024577 57.79461317 -57.11328125 59.265625 C-67.68249773 60.30619484 -67.68249773 60.30619484 -71.86328125 57.265625 C-73.48597685 53.37115556 -74.31035024 50.33128005 -73.11328125 46.265625 C-68.90206501 39.95965429 -62.85086109 35.13355318 -57.11328125 30.265625 C-52.68632015 26.34155449 -48.29617653 22.37767466 -43.97265625 18.33984375 C-15.34517001 -8.38824912 -15.34517001 -8.38824912 0 0 Z " fill="#FBFBFB" transform="translate(235.11328125,199.734375)"/>
<path d="M0 0 C0.66 0.33 1.32 0.66 2 1 C2 1.66 2 2.32 2 3 C-0.5 4.625 -0.5 4.625 -3 6 C-3.66 5.34 -4.32 4.68 -5 4 C-3.35 2.68 -1.7 1.36 0 0 Z " fill="#1B1B1B" transform="translate(147,119)"/>
</svg>
